<svg width="139" height="40" viewBox="0 0 139 40" fill="none" xmlns="http://www.w3.org/2000/svg">
<rect x="0.680908" y="0.5" width="137.059" height="39" rx="1.5" stroke="black" stroke-opacity="0.1"/>
<path d="M48.3302 12.562C48.3302 13.1523 48.2367 13.6895 48.0497 14.1735C47.8627 14.6575 47.5987 15.0718 47.2577 15.4165C46.9167 15.7612 46.506 16.0288 46.0257 16.2195C45.549 16.4065 45.021 16.5 44.4417 16.5H41.4992V8.6185H44.4417C45.021 8.6185 45.549 8.71383 46.0257 8.9045C46.506 9.0915 46.9167 9.35917 47.2577 9.7075C47.5987 10.0522 47.8627 10.4665 48.0497 10.9505C48.2367 11.4345 48.3302 11.9717 48.3302 12.562ZM47.2357 12.562C47.2357 12.078 47.1697 11.6453 47.0377 11.264C46.9057 10.8827 46.7187 10.56 46.4767 10.296C46.2347 10.032 45.9413 9.83033 45.5967 9.691C45.252 9.55167 44.867 9.482 44.4417 9.482H42.5662V15.6365H44.4417C44.867 15.6365 45.252 15.5668 45.5967 15.4275C45.9413 15.2882 46.2347 15.0883 46.4767 14.828C46.7187 14.564 46.9057 14.2413 47.0377 13.86C47.1697 13.4787 47.2357 13.046 47.2357 12.562ZM52.5162 13.992C52.0652 14.0067 51.6802 14.0433 51.3612 14.102C51.0459 14.157 50.7874 14.2303 50.5857 14.322C50.3877 14.4137 50.2429 14.5218 50.1512 14.6465C50.0632 14.7712 50.0192 14.9105 50.0192 15.0645C50.0192 15.2112 50.043 15.3377 50.0907 15.444C50.1384 15.5503 50.2025 15.6383 50.2832 15.708C50.3675 15.774 50.4647 15.8235 50.5747 15.8565C50.6884 15.8858 50.8094 15.9005 50.9377 15.9005C51.11 15.9005 51.2677 15.884 51.4107 15.851C51.5537 15.8143 51.6875 15.763 51.8122 15.697C51.9405 15.631 52.0615 15.5522 52.1752 15.4605C52.2925 15.3688 52.4062 15.2643 52.5162 15.147V13.992ZM49.3537 11.715C49.6617 11.418 49.9935 11.1962 50.3492 11.0495C50.7049 10.9028 51.099 10.8295 51.5317 10.8295C51.8434 10.8295 52.1202 10.8808 52.3622 10.9835C52.6042 11.0862 52.8077 11.2292 52.9727 11.4125C53.1377 11.5958 53.2624 11.8177 53.3467 12.078C53.431 12.3383 53.4732 12.6243 53.4732 12.936V16.5H53.0387C52.9434 16.5 52.87 16.4853 52.8187 16.456C52.7674 16.423 52.727 16.3607 52.6977 16.269L52.5877 15.741C52.441 15.8767 52.298 15.9977 52.1587 16.104C52.0194 16.2067 51.8727 16.2947 51.7187 16.368C51.5647 16.4377 51.3997 16.4908 51.2237 16.5275C51.0514 16.5678 50.8589 16.588 50.6462 16.588C50.4299 16.588 50.2264 16.5587 50.0357 16.5C49.845 16.4377 49.6782 16.346 49.5352 16.225C49.3959 16.104 49.284 15.9518 49.1997 15.7685C49.119 15.5815 49.0787 15.3615 49.0787 15.1085C49.0787 14.8885 49.1392 14.6777 49.2602 14.476C49.3812 14.2707 49.5774 14.0892 49.8487 13.9315C50.12 13.7738 50.4739 13.6455 50.9102 13.5465C51.3465 13.4438 51.8819 13.3852 52.5162 13.3705V12.936C52.5162 12.5033 52.4227 12.177 52.2357 11.957C52.0487 11.7333 51.7755 11.6215 51.4162 11.6215C51.1742 11.6215 50.9707 11.6527 50.8057 11.715C50.6444 11.7737 50.5032 11.8415 50.3822 11.9185C50.2649 11.9918 50.1622 12.0597 50.0742 12.122C49.9899 12.1807 49.9055 12.21 49.8212 12.21C49.7552 12.21 49.6984 12.1935 49.6507 12.1605C49.603 12.1238 49.5627 12.0798 49.5297 12.0285L49.3537 11.715ZM55.949 15.158C56.1286 15.4 56.3248 15.5705 56.5375 15.6695C56.7501 15.7685 56.9885 15.818 57.2525 15.818C57.7731 15.818 58.1728 15.6328 58.4515 15.2625C58.7301 14.8922 58.8695 14.3642 58.8695 13.6785C58.8695 13.3155 58.8365 13.0038 58.7705 12.7435C58.7081 12.4832 58.6165 12.2705 58.4955 12.1055C58.3745 11.9368 58.226 11.814 58.05 11.737C57.874 11.66 57.6741 11.6215 57.4505 11.6215C57.1315 11.6215 56.851 11.6948 56.609 11.8415C56.3706 11.9882 56.1506 12.1953 55.949 12.463V15.158ZM55.8995 11.792C56.1341 11.5023 56.4055 11.2695 56.7135 11.0935C57.0215 10.9175 57.3735 10.8295 57.7695 10.8295C58.0921 10.8295 58.3836 10.8918 58.644 11.0165C58.9043 11.1375 59.1261 11.319 59.3095 11.561C59.4928 11.7993 59.634 12.0963 59.733 12.452C59.832 12.8077 59.8815 13.2165 59.8815 13.6785C59.8815 14.0892 59.8265 14.4723 59.7165 14.828C59.6065 15.18 59.447 15.4862 59.238 15.7465C59.0326 16.0032 58.7796 16.2067 58.479 16.357C58.182 16.5037 57.8465 16.577 57.4725 16.577C57.1315 16.577 56.8381 16.5202 56.5925 16.4065C56.3505 16.2892 56.136 16.1278 55.949 15.9225V18.3865H54.9645V10.9285H55.553C55.6923 10.9285 55.7785 10.9963 55.8115 11.132L55.8995 11.792ZM64.15 13.992C63.699 14.0067 63.314 14.0433 62.995 14.102C62.6796 14.157 62.4211 14.2303 62.2195 14.322C62.0215 14.4137 61.8766 14.5218 61.785 14.6465C61.697 14.7712 61.653 14.9105 61.653 15.0645C61.653 15.2112 61.6768 15.3377 61.7245 15.444C61.7721 15.5503 61.8363 15.6383 61.917 15.708C62.0013 15.774 62.0985 15.8235 62.2085 15.8565C62.3221 15.8858 62.4431 15.9005 62.5715 15.9005C62.7438 15.9005 62.9015 15.884 63.0445 15.851C63.1875 15.8143 63.3213 15.763 63.446 15.697C63.5743 15.631 63.6953 15.5522 63.809 15.4605C63.9263 15.3688 64.04 15.2643 64.15 15.147V13.992ZM60.9875 11.715C61.2955 11.418 61.6273 11.1962 61.983 11.0495C62.3386 10.9028 62.7328 10.8295 63.1655 10.8295C63.4771 10.8295 63.754 10.8808 63.996 10.9835C64.238 11.0862 64.4415 11.2292 64.6065 11.4125C64.7715 11.5958 64.8961 11.8177 64.9805 12.078C65.0648 12.3383 65.107 12.6243 65.107 12.936V16.5H64.6725C64.5771 16.5 64.5038 16.4853 64.4525 16.456C64.4011 16.423 64.3608 16.3607 64.3315 16.269L64.2215 15.741C64.0748 15.8767 63.9318 15.9977 63.7925 16.104C63.6531 16.2067 63.5065 16.2947 63.3525 16.368C63.1985 16.4377 63.0335 16.4908 62.8575 16.5275C62.6851 16.5678 62.4926 16.588 62.28 16.588C62.0636 16.588 61.8601 16.5587 61.6695 16.5C61.4788 16.4377 61.312 16.346 61.169 16.225C61.0296 16.104 60.9178 15.9518 60.8335 15.7685C60.7528 15.5815 60.7125 15.3615 60.7125 15.1085C60.7125 14.8885 60.773 14.6777 60.894 14.476C61.015 14.2707 61.2111 14.0892 61.4825 13.9315C61.7538 13.7738 62.1076 13.6455 62.544 13.5465C62.9803 13.4438 63.5156 13.3852 64.15 13.3705V12.936C64.15 12.5033 64.0565 12.177 63.8695 11.957C63.6825 11.7333 63.4093 11.6215 63.05 11.6215C62.808 11.6215 62.6045 11.6527 62.4395 11.715C62.2781 11.7737 62.137 11.8415 62.016 11.9185C61.8986 11.9918 61.796 12.0597 61.708 12.122C61.6236 12.1807 61.5393 12.21 61.455 12.21C61.389 12.21 61.3321 12.1935 61.2845 12.1605C61.2368 12.1238 61.1965 12.0798 61.1635 12.0285L60.9875 11.715ZM68.2336 16.588C67.7936 16.588 67.4544 16.4652 67.2161 16.2195C66.9814 15.9738 66.8641 15.62 66.8641 15.158V11.748H66.1931C66.1344 11.748 66.0849 11.7315 66.0446 11.6985C66.0042 11.6618 65.9841 11.6068 65.9841 11.5335V11.143L66.8971 11.0275L67.1226 9.306C67.1336 9.251 67.1574 9.207 67.1941 9.174C67.2344 9.13733 67.2857 9.119 67.3481 9.119H67.8431V11.0385H69.4546V11.748H67.8431V15.092C67.8431 15.3267 67.8999 15.5008 68.0136 15.6145C68.1272 15.7282 68.2739 15.785 68.4536 15.785C68.5562 15.785 68.6442 15.7722 68.7176 15.7465C68.7946 15.7172 68.8606 15.686 68.9156 15.653C68.9706 15.62 69.0164 15.5907 69.0531 15.565C69.0934 15.5357 69.1282 15.521 69.1576 15.521C69.2089 15.521 69.2547 15.5522 69.2951 15.6145L69.5811 16.082C69.4124 16.2397 69.2089 16.3643 68.9706 16.456C68.7322 16.544 68.4866 16.588 68.2336 16.588ZM76.9099 12.254C76.7266 12.0083 76.5286 11.8378 76.3159 11.7425C76.1032 11.6435 75.8649 11.594 75.6009 11.594C75.0839 11.594 74.6861 11.7792 74.4074 12.1495C74.1287 12.5198 73.9894 13.0478 73.9894 13.7335C73.9894 14.0965 74.0206 14.4082 74.0829 14.6685C74.1452 14.9252 74.2369 15.1378 74.3579 15.3065C74.4789 15.4715 74.6274 15.5925 74.8034 15.6695C74.9794 15.7465 75.1792 15.785 75.4029 15.785C75.7256 15.785 76.0061 15.7117 76.2444 15.565C76.4864 15.4183 76.7082 15.2112 76.9099 14.9435V12.254ZM77.8889 8.3985V16.5H77.3059C77.1666 16.5 77.0786 16.4322 77.0419 16.2965L76.9539 15.62C76.7156 15.906 76.4442 16.137 76.1399 16.313C75.8356 16.489 75.4836 16.577 75.0839 16.577C74.7649 16.577 74.4752 16.5165 74.2149 16.3955C73.9546 16.2708 73.7327 16.0893 73.5494 15.851C73.3661 15.6127 73.2249 15.3157 73.1259 14.96C73.0269 14.6043 72.9774 14.1955 72.9774 13.7335C72.9774 13.3228 73.0324 12.9415 73.1424 12.5895C73.2524 12.2338 73.4101 11.9258 73.6154 11.6655C73.8207 11.4052 74.0719 11.2017 74.3689 11.055C74.6696 10.9047 75.0069 10.8295 75.3809 10.8295C75.7219 10.8295 76.0134 10.8882 76.2554 11.0055C76.5011 11.1192 76.7192 11.2787 76.9099 11.484V8.3985H77.8889ZM80.4692 10.9285V16.5H79.4902V10.9285H80.4692ZM80.6782 9.1795C80.6782 9.27483 80.658 9.36467 80.6177 9.449C80.581 9.52967 80.5297 9.603 80.4637 9.669C80.4013 9.73133 80.3262 9.78083 80.2382 9.8175C80.1538 9.85417 80.064 9.8725 79.9687 9.8725C79.8733 9.8725 79.7835 9.85417 79.6992 9.8175C79.6185 9.78083 79.547 9.73133 79.4847 9.669C79.4223 9.603 79.3728 9.52967 79.3362 9.449C79.2995 9.36467 79.2812 9.27483 79.2812 9.1795C79.2812 9.08417 79.2995 8.99433 79.3362 8.91C79.3728 8.822 79.4223 8.74683 79.4847 8.6845C79.547 8.6185 79.6185 8.56717 79.6992 8.5305C79.7835 8.49383 79.8733 8.4755 79.9687 8.4755C80.064 8.4755 80.1538 8.49383 80.2382 8.5305C80.3262 8.56717 80.4013 8.6185 80.4637 8.6845C80.5297 8.74683 80.581 8.822 80.6177 8.91C80.658 8.99433 80.6782 9.08417 80.6782 9.1795ZM83.0622 15.158C83.2419 15.4 83.4381 15.5705 83.6507 15.6695C83.8671 15.7685 84.1036 15.818 84.3602 15.818C84.8846 15.818 85.2861 15.6328 85.5647 15.2625C85.8434 14.8922 85.9827 14.3403 85.9827 13.607C85.9827 12.925 85.8581 12.4245 85.6087 12.1055C85.3631 11.7828 85.0111 11.6215 84.5527 11.6215C84.2337 11.6215 83.9551 11.6948 83.7167 11.8415C83.4821 11.9882 83.2639 12.1953 83.0622 12.463V15.158ZM83.0622 11.7315C83.2969 11.4602 83.5609 11.2438 83.8542 11.0825C84.1512 10.9212 84.4922 10.8405 84.8772 10.8405C85.2036 10.8405 85.4969 10.9028 85.7572 11.0275C86.0212 11.1522 86.2449 11.3337 86.4282 11.572C86.6116 11.8067 86.7509 12.0927 86.8462 12.43C86.9452 12.7673 86.9947 13.1468 86.9947 13.5685C86.9947 14.0195 86.9397 14.4302 86.8297 14.8005C86.7197 15.1708 86.5602 15.488 86.3512 15.752C86.1459 16.0123 85.8947 16.2158 85.5977 16.3625C85.3007 16.5055 84.9671 16.577 84.5967 16.577C84.2301 16.577 83.9202 16.5092 83.6672 16.3735C83.4179 16.2342 83.1997 16.038 83.0127 15.785L82.9632 16.291C82.9339 16.4303 82.8496 16.5 82.7102 16.5H82.0777V8.3985H83.0622V11.7315ZM91.2525 13.992C90.8015 14.0067 90.4165 14.0433 90.0975 14.102C89.7822 14.157 89.5237 14.2303 89.322 14.322C89.124 14.4137 88.9792 14.5218 88.8875 14.6465C88.7995 14.7712 88.7555 14.9105 88.7555 15.0645C88.7555 15.2112 88.7794 15.3377 88.827 15.444C88.8747 15.5503 88.9389 15.6383 89.0195 15.708C89.1039 15.774 89.201 15.8235 89.311 15.8565C89.4247 15.8858 89.5457 15.9005 89.674 15.9005C89.8464 15.9005 90.004 15.884 90.147 15.851C90.29 15.8143 90.4239 15.763 90.5485 15.697C90.6769 15.631 90.7979 15.5522 90.9115 15.4605C91.0289 15.3688 91.1425 15.2643 91.2525 15.147V13.992ZM88.09 11.715C88.398 11.418 88.7299 11.1962 89.0855 11.0495C89.4412 10.9028 89.8354 10.8295 90.268 10.8295C90.5797 10.8295 90.8565 10.8808 91.0985 10.9835C91.3405 11.0862 91.544 11.2292 91.709 11.4125C91.874 11.5958 91.9987 11.8177 92.083 12.078C92.1674 12.3383 92.2095 12.6243 92.2095 12.936V16.5H91.775C91.6797 16.5 91.6064 16.4853 91.555 16.456C91.5037 16.423 91.4634 16.3607 91.434 16.269L91.324 15.741C91.1774 15.8767 91.0344 15.9977 90.895 16.104C90.7557 16.2067 90.609 16.2947 90.455 16.368C90.301 16.4377 90.136 16.4908 89.96 16.5275C89.7877 16.5678 89.5952 16.588 89.3825 16.588C89.1662 16.588 88.9627 16.5587 88.772 16.5C88.5814 16.4377 88.4145 16.346 88.2715 16.225C88.1322 16.104 88.0204 15.9518 87.936 15.7685C87.8554 15.5815 87.815 15.3615 87.815 15.1085C87.815 14.8885 87.8755 14.6777 87.9965 14.476C88.1175 14.2707 88.3137 14.0892 88.585 13.9315C88.8564 13.7738 89.2102 13.6455 89.6465 13.5465C90.0829 13.4438 90.6182 13.3852 91.2525 13.3705V12.936C91.2525 12.5033 91.159 12.177 90.972 11.957C90.785 11.7333 90.5119 11.6215 90.1525 11.6215C89.9105 11.6215 89.707 11.6527 89.542 11.715C89.3807 11.7737 89.2395 11.8415 89.1185 11.9185C89.0012 11.9918 88.8985 12.0597 88.8105 12.122C88.7262 12.1807 88.6419 12.21 88.5575 12.21C88.4915 12.21 88.4347 12.1935 88.387 12.1605C88.3394 12.1238 88.299 12.0798 88.266 12.0285L88.09 11.715ZM97.5783 11.9185C97.549 11.9588 97.5196 11.99 97.4903 12.012C97.461 12.034 97.4206 12.045 97.3693 12.045C97.3143 12.045 97.2538 12.023 97.1878 11.979C97.1218 11.9313 97.0393 11.88 96.9403 11.825C96.845 11.77 96.7258 11.7205 96.5828 11.6765C96.4435 11.6288 96.2711 11.605 96.0658 11.605C95.7908 11.605 95.5488 11.6545 95.3398 11.7535C95.1308 11.8488 94.9548 11.9882 94.8118 12.1715C94.6725 12.3548 94.5661 12.5767 94.4928 12.837C94.4231 13.0973 94.3883 13.3888 94.3883 13.7115C94.3883 14.0488 94.4268 14.3495 94.5038 14.6135C94.5808 14.8738 94.689 15.0938 94.8283 15.2735C94.9713 15.4495 95.1418 15.5852 95.3398 15.6805C95.5415 15.7722 95.767 15.818 96.0163 15.818C96.2546 15.818 96.4508 15.7905 96.6048 15.7355C96.7588 15.6768 96.8853 15.6127 96.9843 15.543C97.087 15.4733 97.1713 15.411 97.2373 15.356C97.307 15.2973 97.3748 15.268 97.4408 15.268C97.5215 15.268 97.5838 15.2992 97.6278 15.3615L97.9028 15.719C97.7818 15.8693 97.6443 15.9977 97.4903 16.104C97.3363 16.2103 97.1695 16.3002 96.9898 16.3735C96.8138 16.4432 96.6286 16.4945 96.4343 16.5275C96.24 16.5605 96.042 16.577 95.8403 16.577C95.492 16.577 95.1675 16.5128 94.8668 16.3845C94.5698 16.2562 94.3113 16.071 94.0913 15.829C93.8713 15.5833 93.699 15.2827 93.5743 14.927C93.4496 14.5713 93.3873 14.1662 93.3873 13.7115C93.3873 13.2972 93.4441 12.914 93.5578 12.562C93.6751 12.21 93.8438 11.9075 94.0638 11.6545C94.2875 11.3978 94.5606 11.198 94.8833 11.055C95.2096 10.912 95.5836 10.8405 96.0053 10.8405C96.3976 10.8405 96.7423 10.9047 97.0393 11.033C97.34 11.1577 97.6058 11.3355 97.8368 11.5665L97.5783 11.9185ZM101.973 13.992C101.522 14.0067 101.137 14.0433 100.818 14.102C100.503 14.157 100.244 14.2303 100.043 14.322C99.8447 14.4137 99.6999 14.5218 99.6082 14.6465C99.5202 14.7712 99.4762 14.9105 99.4762 15.0645C99.4762 15.2112 99.5001 15.3377 99.5477 15.444C99.5954 15.5503 99.6596 15.6383 99.7402 15.708C99.8246 15.774 99.9217 15.8235 100.032 15.8565C100.145 15.8858 100.266 15.9005 100.395 15.9005C100.567 15.9005 100.725 15.884 100.868 15.851C101.011 15.8143 101.145 15.763 101.269 15.697C101.398 15.631 101.519 15.5522 101.632 15.4605C101.75 15.3688 101.863 15.2643 101.973 15.147V13.992ZM98.8107 11.715C99.1187 11.418 99.4506 11.1962 99.8062 11.0495C100.162 10.9028 100.556 10.8295 100.989 10.8295C101.3 10.8295 101.577 10.8808 101.819 10.9835C102.061 11.0862 102.265 11.2292 102.43 11.4125C102.595 11.5958 102.719 11.8177 102.804 12.078C102.888 12.3383 102.93 12.6243 102.93 12.936V16.5H102.496C102.4 16.5 102.327 16.4853 102.276 16.456C102.224 16.423 102.184 16.3607 102.155 16.269L102.045 15.741C101.898 15.8767 101.755 15.9977 101.616 16.104C101.476 16.2067 101.33 16.2947 101.176 16.368C101.022 16.4377 100.857 16.4908 100.681 16.5275C100.508 16.5678 100.316 16.588 100.103 16.588C99.8869 16.588 99.6834 16.5587 99.4927 16.5C99.3021 16.4377 99.1352 16.346 98.9922 16.225C98.8529 16.104 98.7411 15.9518 98.6567 15.7685C98.5761 15.5815 98.5357 15.3615 98.5357 15.1085C98.5357 14.8885 98.5962 14.6777 98.7172 14.476C98.8382 14.2707 99.0344 14.0892 99.3057 13.9315C99.5771 13.7738 99.9309 13.6455 100.367 13.5465C100.804 13.4438 101.339 13.3852 101.973 13.3705V12.936C101.973 12.5033 101.88 12.177 101.693 11.957C101.506 11.7333 101.233 11.6215 100.873 11.6215C100.631 11.6215 100.428 11.6527 100.263 11.715C100.101 11.7737 99.9602 11.8415 99.8392 11.9185C99.7219 11.9918 99.6192 12.0597 99.5312 12.122C99.4469 12.1807 99.3626 12.21 99.2782 12.21C99.2122 12.21 99.1554 12.1935 99.1077 12.1605C99.0601 12.1238 99.0197 12.0798 98.9867 12.0285L98.8107 11.715ZM109.584 10.8405C109.991 10.8405 110.358 10.9083 110.684 11.044C111.011 11.1797 111.289 11.3722 111.52 11.6215C111.751 11.8708 111.927 12.1733 112.048 12.529C112.173 12.881 112.235 13.2752 112.235 13.7115C112.235 14.1515 112.173 14.5475 112.048 14.8995C111.927 15.2515 111.751 15.5522 111.52 15.8015C111.289 16.0508 111.011 16.2433 110.684 16.379C110.358 16.511 109.991 16.577 109.584 16.577C109.174 16.577 108.803 16.511 108.473 16.379C108.147 16.2433 107.868 16.0508 107.637 15.8015C107.406 15.5522 107.229 15.2515 107.104 14.8995C106.983 14.5475 106.922 14.1515 106.922 13.7115C106.922 13.2752 106.983 12.881 107.104 12.529C107.229 12.1733 107.406 11.8708 107.637 11.6215C107.868 11.3722 108.147 11.1797 108.473 11.044C108.803 10.9083 109.174 10.8405 109.584 10.8405ZM109.584 15.8125C110.134 15.8125 110.545 15.6292 110.816 15.2625C111.088 14.8922 111.223 14.377 111.223 13.717C111.223 13.0533 111.088 12.5363 110.816 12.166C110.545 11.7957 110.134 11.6105 109.584 11.6105C109.306 11.6105 109.062 11.6582 108.853 11.7535C108.648 11.8488 108.475 11.9863 108.336 12.166C108.2 12.3457 108.098 12.5675 108.028 12.8315C107.962 13.0918 107.929 13.387 107.929 13.717C107.929 14.377 108.065 14.8922 108.336 15.2625C108.611 15.6292 109.027 15.8125 109.584 15.8125ZM114.489 8.3985V16.5H113.51V8.3985H114.489ZM119.806 13.1065C119.806 12.8792 119.773 12.672 119.707 12.485C119.644 12.2943 119.551 12.1312 119.426 11.9955C119.305 11.8562 119.157 11.7498 118.981 11.6765C118.805 11.5995 118.605 11.561 118.381 11.561C117.912 11.561 117.54 11.6985 117.265 11.9735C116.993 12.2448 116.825 12.6225 116.759 13.1065H119.806ZM120.598 15.719C120.477 15.8657 120.332 15.994 120.163 16.104C119.995 16.2103 119.813 16.2983 119.619 16.368C119.428 16.4377 119.23 16.489 119.025 16.522C118.819 16.5587 118.616 16.577 118.414 16.577C118.029 16.577 117.674 16.5128 117.347 16.3845C117.025 16.2525 116.744 16.0618 116.506 15.8125C116.271 15.5595 116.088 15.2478 115.956 14.8775C115.824 14.5072 115.758 14.0818 115.758 13.6015C115.758 13.2128 115.816 12.8498 115.934 12.5125C116.055 12.1752 116.227 11.8837 116.451 11.638C116.674 11.3887 116.948 11.1943 117.27 11.055C117.593 10.912 117.956 10.8405 118.359 10.8405C118.693 10.8405 119.001 10.8973 119.283 11.011C119.569 11.121 119.815 11.2823 120.02 11.495C120.229 11.704 120.392 11.9643 120.51 12.276C120.627 12.584 120.686 12.936 120.686 13.332C120.686 13.486 120.669 13.5887 120.636 13.64C120.603 13.6913 120.541 13.717 120.449 13.717H116.726C116.737 14.069 116.784 14.3752 116.869 14.6355C116.957 14.8958 117.078 15.114 117.232 15.29C117.386 15.4623 117.569 15.5925 117.782 15.6805C117.994 15.7648 118.233 15.807 118.497 15.807C118.742 15.807 118.953 15.7795 119.129 15.7245C119.309 15.6658 119.463 15.6035 119.591 15.5375C119.72 15.4715 119.826 15.411 119.91 15.356C119.998 15.2973 120.073 15.268 120.136 15.268C120.216 15.268 120.279 15.2992 120.323 15.3615L120.598 15.719ZM122.873 11.671C123.111 11.418 123.375 11.2163 123.665 11.066C123.954 10.9157 124.288 10.8405 124.666 10.8405C124.97 10.8405 125.238 10.8918 125.469 10.9945C125.703 11.0935 125.898 11.2365 126.052 11.4235C126.209 11.6068 126.329 11.8287 126.409 12.089C126.49 12.3493 126.53 12.6372 126.53 12.9525V16.5H125.546V12.9525C125.546 12.5308 125.449 12.2045 125.254 11.9735C125.064 11.7388 124.772 11.6215 124.38 11.6215C124.09 11.6215 123.819 11.6912 123.566 11.8305C123.316 11.9698 123.085 12.1587 122.873 12.397V16.5H121.888V8.3985H122.873V11.671ZM46.5442 22.8105C46.4922 22.9015 46.4358 22.9687 46.3752 23.012C46.3188 23.051 46.2473 23.0705 46.1607 23.0705C46.0697 23.0705 45.97 23.038 45.8617 22.973C45.7577 22.9037 45.632 22.8278 45.4847 22.7455C45.3373 22.6632 45.164 22.5895 44.9647 22.5245C44.7697 22.4552 44.5378 22.4205 44.2692 22.4205C44.0265 22.4205 43.8142 22.4508 43.6322 22.5115C43.4502 22.5678 43.2963 22.648 43.1707 22.752C43.0493 22.856 42.9583 22.9817 42.8977 23.129C42.837 23.272 42.8067 23.4302 42.8067 23.6035C42.8067 23.8245 42.8673 24.0087 42.9887 24.156C43.1143 24.3033 43.279 24.429 43.4827 24.533C43.6863 24.637 43.9182 24.7302 44.1782 24.8125C44.4382 24.8948 44.7047 24.9837 44.9777 25.079C45.2507 25.17 45.5172 25.2783 45.7772 25.404C46.0372 25.5253 46.269 25.6813 46.4727 25.872C46.6763 26.0583 46.8388 26.288 46.9602 26.561C47.0858 26.834 47.1487 27.1655 47.1487 27.5555C47.1487 27.9802 47.075 28.3788 46.9277 28.7515C46.7847 29.1198 46.5723 29.4427 46.2907 29.72C46.0133 29.993 45.6732 30.2097 45.2702 30.37C44.8672 30.526 44.4057 30.604 43.8857 30.604C43.5867 30.604 43.292 30.5737 43.0017 30.513C42.7113 30.4567 42.4318 30.3743 42.1632 30.266C41.8988 30.1577 41.6497 30.0277 41.4157 29.876C41.1817 29.7243 40.9737 29.5553 40.7917 29.369L41.3052 28.5305C41.3485 28.4698 41.4048 28.42 41.4742 28.381C41.5435 28.3377 41.6172 28.316 41.6952 28.316C41.8035 28.316 41.9205 28.3615 42.0462 28.4525C42.1718 28.5392 42.3213 28.6367 42.4947 28.745C42.668 28.8533 42.8695 28.953 43.0992 29.044C43.3332 29.1307 43.6127 29.174 43.9377 29.174C44.436 29.174 44.8217 29.057 45.0947 28.823C45.3677 28.5847 45.5042 28.2445 45.5042 27.8025C45.5042 27.5555 45.4413 27.354 45.3157 27.198C45.1943 27.042 45.0318 26.912 44.8282 26.808C44.6245 26.6997 44.3927 26.6087 44.1327 26.535C43.8727 26.4613 43.6083 26.3812 43.3397 26.2945C43.071 26.2078 42.8067 26.1038 42.5467 25.9825C42.2867 25.8612 42.0548 25.703 41.8512 25.508C41.6475 25.313 41.4828 25.0703 41.3572 24.78C41.2358 24.4853 41.1752 24.1235 41.1752 23.6945C41.1752 23.3522 41.2423 23.0185 41.3767 22.6935C41.5153 22.3685 41.7147 22.0803 41.9747 21.829C42.2347 21.5777 42.5553 21.3762 42.9367 21.2245C43.318 21.0728 43.7557 20.997 44.2497 20.997C44.8043 20.997 45.3157 21.0837 45.7837 21.257C46.2517 21.4303 46.6503 21.673 46.9797 21.985L46.5442 22.8105ZM53.1726 25.2415C53.1249 25.3022 53.0772 25.3498 53.0296 25.3845C52.9862 25.4192 52.9212 25.4365 52.8346 25.4365C52.7522 25.4365 52.6721 25.4127 52.5941 25.365C52.5161 25.313 52.4229 25.2567 52.3146 25.196C52.2062 25.131 52.0762 25.0747 51.9246 25.027C51.7772 24.975 51.5931 24.949 51.3721 24.949C51.0904 24.949 50.8434 25.001 50.6311 25.105C50.4187 25.2047 50.2411 25.3498 50.0981 25.5405C49.9594 25.7312 49.8554 25.963 49.7861 26.236C49.7167 26.5047 49.6821 26.8102 49.6821 27.1525C49.6821 27.5078 49.7189 27.8242 49.7926 28.1015C49.8706 28.3788 49.9811 28.6128 50.1241 28.8035C50.2671 28.9898 50.4404 29.1328 50.6441 29.2325C50.8477 29.3278 51.0774 29.3755 51.3331 29.3755C51.5887 29.3755 51.7946 29.3452 51.9506 29.2845C52.1109 29.2195 52.2452 29.1502 52.3536 29.0765C52.4619 28.9985 52.5551 28.9292 52.6331 28.8685C52.7154 28.8035 52.8064 28.771 52.9061 28.771C53.0361 28.771 53.1336 28.8208 53.1986 28.9205L53.6601 29.5055C53.4824 29.7135 53.2896 29.889 53.0816 30.032C52.8736 30.1707 52.6569 30.2833 52.4316 30.37C52.2106 30.4523 51.9809 30.5108 51.7426 30.5455C51.5086 30.5802 51.2746 30.5975 51.0406 30.5975C50.6289 30.5975 50.2411 30.5217 49.8771 30.37C49.5131 30.214 49.1946 29.9887 48.9216 29.694C48.6486 29.3993 48.4319 29.0397 48.2716 28.615C48.1156 28.186 48.0376 27.6985 48.0376 27.1525C48.0376 26.6628 48.1069 26.21 48.2456 25.794C48.3886 25.3737 48.5966 25.0118 48.8696 24.7085C49.1426 24.4008 49.4806 24.1603 49.8836 23.987C50.2866 23.8137 50.7502 23.727 51.2746 23.727C51.7729 23.727 52.2084 23.8072 52.5811 23.9675C52.9581 24.1278 53.2961 24.3575 53.5951 24.6565L53.1726 25.2415ZM56.181 24.988C56.389 24.5893 56.636 24.2773 56.922 24.052C57.208 23.8223 57.546 23.7075 57.936 23.7075C58.2437 23.7075 58.4907 23.7747 58.677 23.909L58.573 25.1115C58.5514 25.1895 58.5189 25.2458 58.4755 25.2805C58.4365 25.3108 58.3824 25.326 58.313 25.326C58.248 25.326 58.1505 25.3152 58.0205 25.2935C57.8949 25.2718 57.7714 25.261 57.65 25.261C57.4724 25.261 57.3142 25.287 57.1755 25.339C57.0369 25.391 56.9112 25.4668 56.7985 25.5665C56.6902 25.6618 56.5927 25.7788 56.506 25.9175C56.4237 26.0562 56.3457 26.2143 56.272 26.392V30.5H54.6665V23.831H55.609C55.7737 23.831 55.8885 23.8613 55.9535 23.922C56.0185 23.9783 56.0619 24.0823 56.0835 24.234L56.181 24.988ZM63.6222 26.3985C63.6222 26.1905 63.5919 25.9955 63.5312 25.8135C63.4749 25.6272 63.3882 25.4647 63.2712 25.326C63.1542 25.1873 63.0047 25.079 62.8227 25.001C62.645 24.9187 62.437 24.8775 62.1987 24.8775C61.735 24.8775 61.3689 25.0097 61.1002 25.274C60.8359 25.5383 60.6669 25.9132 60.5932 26.3985H63.6222ZM60.5607 27.367C60.5867 27.7093 60.6474 28.0062 60.7427 28.2575C60.838 28.5045 60.9637 28.7103 61.1197 28.875C61.2757 29.0353 61.4599 29.1567 61.6722 29.239C61.8889 29.317 62.1272 29.356 62.3872 29.356C62.6472 29.356 62.8704 29.3257 63.0567 29.265C63.2474 29.2043 63.412 29.1372 63.5507 29.0635C63.6937 28.9898 63.8172 28.9227 63.9212 28.862C64.0295 28.8013 64.1335 28.771 64.2332 28.771C64.3675 28.771 64.4672 28.8208 64.5322 28.9205L64.9937 29.5055C64.816 29.7135 64.6167 29.889 64.3957 30.032C64.1747 30.1707 63.9429 30.2833 63.7002 30.37C63.4619 30.4523 63.217 30.5108 62.9657 30.5455C62.7187 30.5802 62.4782 30.5975 62.2442 30.5975C61.7805 30.5975 61.3494 30.5217 60.9507 30.37C60.552 30.214 60.2054 29.9865 59.9107 29.6875C59.616 29.3842 59.3842 29.0115 59.2152 28.5695C59.0462 28.1232 58.9617 27.6075 58.9617 27.0225C58.9617 26.5675 59.0354 26.1407 59.1827 25.742C59.33 25.339 59.5402 24.9902 59.8132 24.6955C60.0905 24.3965 60.4264 24.1603 60.8207 23.987C61.2194 23.8137 61.6679 23.727 62.1662 23.727C62.5865 23.727 62.9744 23.7942 63.3297 23.9285C63.685 24.0628 63.9905 24.26 64.2462 24.52C64.5019 24.7757 64.7012 25.092 64.8442 25.469C64.9915 25.8417 65.0652 26.2685 65.0652 26.7495C65.0652 26.9922 65.0392 27.1568 64.9872 27.2435C64.9352 27.3258 64.8355 27.367 64.6882 27.367H60.5607ZM70.5666 26.3985C70.5666 26.1905 70.5362 25.9955 70.4756 25.8135C70.4192 25.6272 70.3326 25.4647 70.2156 25.326C70.0986 25.1873 69.9491 25.079 69.7671 25.001C69.5894 24.9187 69.3814 24.8775 69.1431 24.8775C68.6794 24.8775 68.3132 25.0097 68.0446 25.274C67.7802 25.5383 67.6112 25.9132 67.5376 26.3985H70.5666ZM67.5051 27.367C67.5311 27.7093 67.5917 28.0062 67.6871 28.2575C67.7824 28.5045 67.9081 28.7103 68.0641 28.875C68.2201 29.0353 68.4042 29.1567 68.6166 29.239C68.8332 29.317 69.0716 29.356 69.3316 29.356C69.5916 29.356 69.8147 29.3257 70.0011 29.265C70.1917 29.2043 70.3564 29.1372 70.4951 29.0635C70.6381 28.9898 70.7616 28.9227 70.8656 28.862C70.9739 28.8013 71.0779 28.771 71.1776 28.771C71.3119 28.771 71.4116 28.8208 71.4766 28.9205L71.9381 29.5055C71.7604 29.7135 71.5611 29.889 71.3401 30.032C71.1191 30.1707 70.8872 30.2833 70.6446 30.37C70.4062 30.4523 70.1614 30.5108 69.9101 30.5455C69.6631 30.5802 69.4226 30.5975 69.1886 30.5975C68.7249 30.5975 68.2937 30.5217 67.8951 30.37C67.4964 30.214 67.1497 29.9865 66.8551 29.6875C66.5604 29.3842 66.3286 29.0115 66.1596 28.5695C65.9906 28.1232 65.9061 27.6075 65.9061 27.0225C65.9061 26.5675 65.9797 26.1407 66.1271 25.742C66.2744 25.339 66.4846 24.9902 66.7576 24.6955C67.0349 24.3965 67.3707 24.1603 67.7651 23.987C68.1637 23.8137 68.6122 23.727 69.1106 23.727C69.5309 23.727 69.9187 23.7942 70.2741 23.9285C70.6294 24.0628 70.9349 24.26 71.1906 24.52C71.4462 24.7757 71.6456 25.092 71.7886 25.469C71.9359 25.8417 72.0096 26.2685 72.0096 26.7495C72.0096 26.9922 71.9836 27.1568 71.9316 27.2435C71.8796 27.3258 71.7799 27.367 71.6326 27.367H67.5051ZM74.7159 24.65C74.8502 24.5157 74.9911 24.3922 75.1384 24.2795C75.2901 24.1625 75.4482 24.065 75.6129 23.987C75.7819 23.9047 75.9617 23.8418 76.1524 23.7985C76.3431 23.7508 76.5511 23.727 76.7764 23.727C77.1404 23.727 77.4632 23.7898 77.7449 23.9155C78.0266 24.0368 78.2606 24.2102 78.4469 24.4355C78.6376 24.6565 78.7806 24.923 78.8759 25.235C78.9756 25.5427 79.0254 25.8828 79.0254 26.2555V30.5H77.4199V26.2555C77.4199 25.8482 77.3267 25.534 77.1404 25.313C76.9541 25.0877 76.6702 24.975 76.2889 24.975C76.0116 24.975 75.7516 25.0378 75.5089 25.1635C75.2662 25.2892 75.0366 25.4603 74.8199 25.677V30.5H73.2144V23.831H74.1959C74.4039 23.831 74.5404 23.9285 74.6054 24.1235L74.7159 24.65ZM86.8074 25.573C87.1367 25.573 87.4227 25.5318 87.6654 25.4495C87.9124 25.3672 88.1139 25.2545 88.2699 25.1115C88.4302 24.9642 88.5494 24.7908 88.6274 24.5915C88.7054 24.3922 88.7444 24.1733 88.7444 23.935C88.7444 23.4583 88.5862 23.0922 88.2699 22.8365C87.9579 22.5808 87.4791 22.453 86.8334 22.453H85.7154V25.573H86.8074ZM91.3054 30.5H89.7259C89.4269 30.5 89.2102 30.383 89.0759 30.149L87.0999 27.1395C87.0262 27.0268 86.9439 26.9467 86.8529 26.899C86.7662 26.8513 86.6362 26.8275 86.4629 26.8275H85.7154V30.5H83.9669V21.101H86.8334C87.4704 21.101 88.0164 21.1682 88.4714 21.3025C88.9307 21.4325 89.3056 21.6167 89.5959 21.855C89.8906 22.0933 90.1072 22.3793 90.2459 22.713C90.3846 23.0423 90.4539 23.4063 90.4539 23.805C90.4539 24.1213 90.4062 24.4203 90.3109 24.702C90.2199 24.9837 90.0856 25.2393 89.9079 25.469C89.7346 25.6987 89.5179 25.9002 89.2579 26.0735C89.0022 26.2468 88.7097 26.3833 88.3804 26.483C88.4931 26.548 88.5971 26.626 88.6924 26.717C88.7877 26.8037 88.8744 26.9077 88.9524 27.029L91.3054 30.5ZM95.9318 26.3985C95.9318 26.1905 95.9015 25.9955 95.8408 25.8135C95.7845 25.6272 95.6978 25.4647 95.5808 25.326C95.4638 25.1873 95.3143 25.079 95.1323 25.001C94.9546 24.9187 94.7466 24.8775 94.5083 24.8775C94.0446 24.8775 93.6785 25.0097 93.4098 25.274C93.1455 25.5383 92.9765 25.9132 92.9028 26.3985H95.9318ZM92.8703 27.367C92.8963 27.7093 92.957 28.0062 93.0523 28.2575C93.1476 28.5045 93.2733 28.7103 93.4293 28.875C93.5853 29.0353 93.7695 29.1567 93.9818 29.239C94.1985 29.317 94.4368 29.356 94.6968 29.356C94.9568 29.356 95.18 29.3257 95.3663 29.265C95.557 29.2043 95.7216 29.1372 95.8603 29.0635C96.0033 28.9898 96.1268 28.9227 96.2308 28.862C96.3391 28.8013 96.4431 28.771 96.5428 28.771C96.6771 28.771 96.7768 28.8208 96.8418 28.9205L97.3033 29.5055C97.1256 29.7135 96.9263 29.889 96.7053 30.032C96.4843 30.1707 96.2525 30.2833 96.0098 30.37C95.7715 30.4523 95.5266 30.5108 95.2753 30.5455C95.0283 30.5802 94.7878 30.5975 94.5538 30.5975C94.0901 30.5975 93.659 30.5217 93.2603 30.37C92.8616 30.214 92.515 29.9865 92.2203 29.6875C91.9256 29.3842 91.6938 29.0115 91.5248 28.5695C91.3558 28.1232 91.2713 27.6075 91.2713 27.0225C91.2713 26.5675 91.345 26.1407 91.4923 25.742C91.6396 25.339 91.8498 24.9902 92.1228 24.6955C92.4001 24.3965 92.736 24.1603 93.1303 23.987C93.529 23.8137 93.9775 23.727 94.4758 23.727C94.8961 23.727 95.284 23.7942 95.6393 23.9285C95.9946 24.0628 96.3001 24.26 96.5558 24.52C96.8115 24.7757 97.0108 25.092 97.1538 25.469C97.3011 25.8417 97.3748 26.2685 97.3748 26.7495C97.3748 26.9922 97.3488 27.1568 97.2968 27.2435C97.2448 27.3258 97.1451 27.367 96.9978 27.367H92.8703ZM102.103 27.653C101.639 27.6747 101.249 27.7158 100.933 27.7765C100.616 27.8328 100.363 27.9065 100.172 27.9975C99.9815 28.0885 99.845 28.1947 99.7626 28.316C99.6803 28.4373 99.6391 28.5695 99.6391 28.7125C99.6391 28.9942 99.7215 29.1957 99.8861 29.317C100.055 29.4383 100.274 29.499 100.543 29.499C100.872 29.499 101.156 29.4405 101.394 29.3235C101.637 29.2022 101.873 29.0202 102.103 28.7775V27.653ZM98.4236 24.7605C99.1906 24.0585 100.114 23.7075 101.193 23.7075C101.583 23.7075 101.931 23.7725 102.239 23.9025C102.547 24.0282 102.807 24.2058 103.019 24.4355C103.231 24.6608 103.392 24.9317 103.5 25.248C103.613 25.5643 103.669 25.911 103.669 26.288V30.5H102.941C102.789 30.5 102.672 30.4783 102.59 30.435C102.508 30.3873 102.443 30.2942 102.395 30.1555L102.252 29.6745C102.083 29.8262 101.918 29.9605 101.758 30.0775C101.598 30.1902 101.431 30.2855 101.258 30.3635C101.084 30.4415 100.898 30.5 100.699 30.539C100.504 30.5823 100.287 30.604 100.049 30.604C99.767 30.604 99.507 30.5672 99.2686 30.4935C99.0303 30.4155 98.8245 30.3007 98.6511 30.149C98.4778 29.9973 98.3435 29.8088 98.2481 29.5835C98.1528 29.3582 98.1051 29.096 98.1051 28.797C98.1051 28.628 98.1333 28.4612 98.1896 28.2965C98.246 28.1275 98.337 27.9672 98.4626 27.8155C98.5926 27.6638 98.7595 27.5208 98.9631 27.3865C99.1668 27.2522 99.416 27.1352 99.7106 27.0355C100.01 26.9358 100.356 26.8557 100.751 26.795C101.145 26.73 101.596 26.691 102.103 26.678V26.288C102.103 25.8417 102.007 25.5123 101.817 25.3C101.626 25.0833 101.351 24.975 100.991 24.975C100.731 24.975 100.514 25.0053 100.341 25.066C100.172 25.1267 100.023 25.196 99.8926 25.274C99.7626 25.3477 99.6435 25.4148 99.5351 25.4755C99.4311 25.5362 99.3141 25.5665 99.1841 25.5665C99.0715 25.5665 98.9761 25.5383 98.8981 25.482C98.8201 25.4213 98.7573 25.352 98.7096 25.274L98.4236 24.7605ZM109.367 25.534C109.185 25.313 108.986 25.157 108.769 25.066C108.557 24.975 108.327 24.9295 108.08 24.9295C107.838 24.9295 107.619 24.975 107.424 25.066C107.229 25.157 107.062 25.2957 106.923 25.482C106.785 25.664 106.678 25.898 106.605 26.184C106.531 26.4657 106.494 26.7993 106.494 27.185C106.494 27.575 106.525 27.9065 106.585 28.1795C106.65 28.4482 106.741 28.6692 106.858 28.8425C106.975 29.0115 107.118 29.135 107.287 29.213C107.456 29.2867 107.645 29.3235 107.853 29.3235C108.186 29.3235 108.47 29.2542 108.704 29.1155C108.938 28.9768 109.159 28.7797 109.367 28.524V25.534ZM110.973 20.841V30.5H109.991C109.779 30.5 109.645 30.4025 109.588 30.2075L109.452 29.564C109.183 29.8717 108.873 30.1208 108.522 30.3115C108.176 30.5022 107.77 30.5975 107.307 30.5975C106.943 30.5975 106.609 30.5217 106.306 30.37C106.002 30.2183 105.74 29.9995 105.519 29.7135C105.303 29.4232 105.134 29.0657 105.012 28.641C104.895 28.2163 104.837 27.731 104.837 27.185C104.837 26.691 104.904 26.2317 105.038 25.807C105.173 25.3823 105.365 25.014 105.617 24.702C105.868 24.39 106.169 24.1473 106.52 23.974C106.871 23.7963 107.266 23.7075 107.703 23.7075C108.076 23.7075 108.394 23.766 108.659 23.883C108.923 24 109.159 24.1582 109.367 24.3575V20.841H110.973ZM116.854 26.3985C116.854 26.1905 116.823 25.9955 116.763 25.8135C116.706 25.6272 116.62 25.4647 116.503 25.326C116.386 25.1873 116.236 25.079 116.054 25.001C115.876 24.9187 115.668 24.8775 115.43 24.8775C114.966 24.8775 114.6 25.0097 114.332 25.274C114.067 25.5383 113.898 25.9132 113.825 26.3985H116.854ZM113.792 27.367C113.818 27.7093 113.879 28.0062 113.974 28.2575C114.069 28.5045 114.195 28.7103 114.351 28.875C114.507 29.0353 114.691 29.1567 114.904 29.239C115.12 29.317 115.359 29.356 115.619 29.356C115.879 29.356 116.102 29.3257 116.288 29.265C116.479 29.2043 116.643 29.1372 116.782 29.0635C116.925 28.9898 117.049 28.9227 117.153 28.862C117.261 28.8013 117.365 28.771 117.465 28.771C117.599 28.771 117.699 28.8208 117.764 28.9205L118.225 29.5055C118.047 29.7135 117.848 29.889 117.627 30.032C117.406 30.1707 117.174 30.2833 116.932 30.37C116.693 30.4523 116.448 30.5108 116.197 30.5455C115.95 30.5802 115.71 30.5975 115.476 30.5975C115.012 30.5975 114.581 30.5217 114.182 30.37C113.783 30.214 113.437 29.9865 113.142 29.6875C112.847 29.3842 112.616 29.0115 112.447 28.5695C112.278 28.1232 112.193 27.6075 112.193 27.0225C112.193 26.5675 112.267 26.1407 112.414 25.742C112.561 25.339 112.772 24.9902 113.045 24.6955C113.322 24.3965 113.658 24.1603 114.052 23.987C114.451 23.8137 114.899 23.727 115.398 23.727C115.818 23.727 116.206 23.7942 116.561 23.9285C116.916 24.0628 117.222 24.26 117.478 24.52C117.733 24.7757 117.933 25.092 118.076 25.469C118.223 25.8417 118.297 26.2685 118.297 26.7495C118.297 26.9922 118.271 27.1568 118.219 27.2435C118.167 27.3258 118.067 27.367 117.92 27.367H113.792ZM121.016 24.988C121.224 24.5893 121.471 24.2773 121.757 24.052C122.043 23.8223 122.381 23.7075 122.771 23.7075C123.079 23.7075 123.326 23.7747 123.512 23.909L123.408 25.1115C123.386 25.1895 123.354 25.2458 123.31 25.2805C123.271 25.3108 123.217 25.326 123.148 25.326C123.083 25.326 122.985 25.3152 122.855 25.2935C122.73 25.2718 122.606 25.261 122.485 25.261C122.307 25.261 122.149 25.287 122.01 25.339C121.872 25.391 121.746 25.4668 121.633 25.5665C121.525 25.6618 121.428 25.7788 121.341 25.9175C121.259 26.0562 121.181 26.2143 121.107 26.392V30.5H119.501V23.831H120.444C120.609 23.831 120.723 23.8613 120.788 23.922C120.853 23.9783 120.897 24.0823 120.918 24.234L121.016 24.988Z" fill="#232323"/>
<path d="M17.5883 31.6987L33.4188 21.2589L22.1438 9.98386L11.704 25.8144L17.5883 31.6987Z" fill="#02AEEE"/>
<path d="M24.7633 14.957L14.1716 25.5866L13.6401 25.0551L22.6374 12.7931L24.7633 14.957Z" fill="white"/>
<path d="M18.2337 31.0912C18.5753 31.4329 18.6133 31.9644 18.3096 32.2681C18.0059 32.5718 17.4744 32.5338 17.1327 32.1921L11.2105 26.2699C10.8688 25.9283 10.8309 25.3968 11.1346 25.0931C11.4383 24.7894 11.9698 24.8273 12.3114 25.169L18.2337 31.0912Z" fill="#0795CA"/>
<path d="M34.216 20.4616C34.5577 20.8033 34.5957 21.3348 34.292 21.6385C33.9883 21.9422 33.4568 21.9042 33.1151 21.5625L21.8401 10.2875C21.4984 9.94587 21.4605 9.41439 21.7642 9.11069C22.0679 8.80698 22.5994 8.84495 22.941 9.18661L34.216 20.4616Z" fill="#0795CA"/>
<path d="M28.4457 29.3449L25.9401 31.1672C24.0799 32.5338 21.4605 32.1162 20.0938 30.2561L19.866 29.9144C18.4994 28.0542 18.917 25.4348 20.7772 24.0681L23.2827 22.2459C25.1429 20.8792 27.7623 21.2968 29.129 23.157L29.3568 23.4986C30.7234 25.3588 30.3059 28.0162 28.4457 29.3449ZM21.7262 25.4348C20.5873 26.232 20.3596 27.8264 21.1568 28.9653L21.4225 29.307C22.2197 30.4459 23.8142 30.6736 24.9531 29.8764L27.4586 28.0542C28.5975 27.257 28.8253 25.6625 28.0281 24.5236L27.8003 24.182C27.0031 23.0431 25.4086 22.8153 24.2697 23.6125L21.7262 25.4348Z" fill="#02AEEE"/>
<path d="M22.2577 10.0598L22.1439 9.98386L21.8022 10.4774L22.2577 10.0598Z" fill="#D32A0F"/>
<path d="M15.1586 29.2311L17.5883 31.6987L33.4188 21.2588L28.2938 16.0959L15.1586 29.2311Z" fill="#0795CA"/>
<path d="M32.4778 15.3746C32.2684 15.3746 32.1114 15.0605 32.1114 14.8511C32.1114 14.6417 32.2684 14.3276 32.4778 14.3276H36.7182C36.9276 14.3276 37.0846 14.6417 37.0846 14.8511C37.0846 15.0605 36.9276 15.3746 36.7182 15.3746H32.4778Z" fill="#F9C420"/>
<path d="M32.4255 12.0242C32.2685 12.1812 31.9544 12.0765 31.7973 11.9195C31.6403 11.7624 31.5356 11.4483 31.6926 11.2913L34.6766 8.3073C34.8336 8.15025 35.1477 8.25495 35.3048 8.412C35.4618 8.56906 35.5665 8.88316 35.4095 9.04021L32.4255 12.0242Z" fill="#F9C420"/>
<path d="M28.0281 10.9248C28.0281 11.1342 28.3422 11.2913 28.5516 11.2913C28.761 11.2913 29.0751 11.1342 29.0751 10.9248V6.68445C29.0751 6.47504 28.761 6.31799 28.5516 6.31799C28.3422 6.31799 28.0281 6.47504 28.0281 6.68445V10.9248Z" fill="#F9C420"/>
</svg>
